<svg version="1.0" xmlns="http://www.w3.org/2000/svg" width="933.333" height="933.333" viewBox="0 0 700 700"><path d="M163.9 59.6c-22 4.1-39.8 21.1-45.5 43.4-1.5 5.9-1.7 17.2-1.8 114.5l-.1 107.9-5.6 3.7c-10.3 6.8-17.2 16.2-21.5 28.9-1.7 5.1-1.8 10.5-1.9 77-.1 74.4.1 78.3 4.2 88.4 3 7.5 11 16.9 18.3 21.8l6.5 4.4.2 20.5c.1 22.9 1.1 28.9 6.6 39.9 4.7 9.5 16.1 20.7 25.9 25.4 4.2 2 10.5 4.3 14 5 5 1 42.9 1.2 188.8 1.2l182.5-.2 7-2.2c19.7-6.1 35.1-22.4 40.1-42.1 1.2-4.7 1.6-11.8 1.7-27.2.1-19.1.3-21 1.9-21.5 2.3-.7 11.3-7.8 14.9-11.8 3.9-4.2 9.3-14.9 10.9-21.6 1.8-7.2 2.2-141.8.5-152.1-2.3-13.4-11.9-27.6-23.2-34.3l-4.9-3v-19c.1-10.5-.2-22.1-.6-25.7-.9-8.7-4.6-19.2-9.2-26.1-3.4-5.2-173-175.9-182.1-183.3-5.9-4.8-14.1-9.1-21.5-11.1-6-1.7-13.7-1.8-103-1.9-72.1-.1-98.2.2-103.1 1.1zm186.3 114.1.3 71.8 2.6 6.6c3.9 10.1 7.6 15.8 14.8 22.9 7.2 7.1 17.4 12.8 27.1 15.1 4.3 1.1 20.7 1.4 74.5 1.4 38 0 69.2.3 69.5.7.3.4.5 6.9.5 14.5v13.8h-379V216.3c0-104.1 0-104.2 2.1-107 1.1-1.5 3.6-3.8 5.4-5.1l3.3-2.2h178.6l.3 71.7zm100.4 18 55.7 55.8-48.9.3c-26.9.1-50.3 0-52-.3-4-.7-8-3.8-10-7.8-1.4-2.6-1.6-9-1.6-49.6 0-53.3 0-54.1.7-54.1.2 0 25.5 25.1 56.1 55.7zm115.9 175.5 2.3 2.7v67.3c.1 60.7-.1 67.5-1.6 70-.9 1.5-2.3 2.9-3.2 2.9-7.8.7-426.2.3-428.2-.4-1.4-.4-3.1-2-3.6-3.5-.7-1.8-1.1-25.9-1-69.7 0-60.6.2-67.2 1.7-68.9.9-1 2.4-2.1 3.3-2.5.9-.3 97.6-.6 214.9-.5h213.2l2.2 2.6zm-27 203.9c0 16-.1 16.7-2.5 20.3-4.9 7.2 9.4 6.7-188.7 6.4l-178.2-.3-2.7-2.1c-6.4-4.8-6.8-5.9-6.9-23.6-.1-9 0-16.6.1-16.9.2-.3 85.5-.6 189.6-.5l189.3.1v16.6z"/><path d="M212.1 381.2c-2.8 1.4-4.6 3.2-6 6.1-1.8 4-1.9 6.5-1.8 51.2.2 44.3.3 47.2 2.1 50.2 4.1 6.7 14.4 9.1 20.4 4.6 5-3.7 6.5-7.6 6.6-17.4.1-8.8.1-8.9 2.6-8.9 13.3-.3 21.3-1 25.5-2.5 32-11.2 40.3-51.1 15.4-74.1-9.9-9-18.5-11.3-42.5-11.3-16.2.1-18.7.3-22.3 2.1zm43.8 29.8c8.7 6.1 8.2 19.1-.8 24.4-2.5 1.4-5.4 1.9-11.7 2.1-4.6.1-8.7-.1-9.2-.4-1.1-.8-1-27.4.1-28.2.5-.3 4.8-.5 9.7-.4 7.3.2 9.4.6 11.9 2.5zM329.2 380.7c-1.9.9-4.4 3.2-5.8 5.2l-2.4 3.6v47.8c0 32.9.3 48.5 1.1 50 2 4 6.9 7.6 11.2 8.2 6.6 1 27.7-.3 33-1.9 28.1-8.9 45.5-36.2 41.1-64.6-3.5-22.3-17.8-39.3-39.1-46.7-6.8-2.3-9.7-2.7-21.8-3-11.4-.2-14.6 0-17.3 1.4zm33.5 31c17.3 8.1 21.6 30.8 8.6 45.3-4.5 5-11.8 8.9-17.9 9.4l-3.4.4v-28.7c0-15.8.3-29 .6-29.4 1-1 6.6.3 12.1 3zM446.5 380.4c-4.5 2-7.7 6-8.5 10.8-.4 2.4-.7 24.6-.6 49.5.1 44 .2 45.2 2.2 47.9 3.6 4.9 7 6.8 12.3 6.9 5.3 0 8.8-1.9 12.4-6.8 1.6-2.1 2-4.4 2.2-11.7.1-4.9.4-9.2.7-9.5.2-.3 7.3-.5 15.7-.6 8.4 0 16.5-.5 18-1 5.5-2.1 9.1-7.4 9.6-13.9.1-2.3-2.2-7.7-4.2-9.8-3.8-4-6.3-4.5-23.3-4.7l-16.4-.1-.1-13.8c0-7.5.2-14.1.5-14.5.3-.4 7.7-.7 16.6-.7 14.8 0 16.3-.2 19.6-2.2 9-5.5 9.5-17.5 1.2-23.9l-3.7-2.8-25.6-.2c-19.3-.1-26.3.1-28.6 1.1z"/></svg>